<svg width="197" height="197" viewBox="0 0 197 197" fill="none" xmlns="http://www.w3.org/2000/svg">
<path d="M98.5004 196.417C44.421 196.417 0.58374 152.58 0.58374 98.5004C0.58374 44.421 44.421 0.58374 98.5004 0.58374C152.58 0.58374 196.417 44.421 196.417 98.5004C196.417 152.58 152.58 196.417 98.5004 196.417ZM98.5004 176.834C119.276 176.834 139.2 168.581 153.89 153.89C168.581 139.2 176.834 119.276 176.834 98.5004C176.834 77.7251 168.581 57.8007 153.89 43.1104C139.2 28.42 119.276 20.1671 98.5004 20.1671C77.7251 20.1671 57.8007 28.42 43.1104 43.1104C28.42 57.8007 20.1671 77.7251 20.1671 98.5004C20.1671 119.276 28.42 139.2 43.1104 153.89C57.8007 168.581 77.7251 176.834 98.5004 176.834ZM88.7381 137.667L47.1921 96.121L61.0375 82.2756L88.7381 109.976L144.12 54.5848L157.975 68.4302L88.7381 137.667Z" fill="#6200EE"/>
</svg>
