<svg width="24" height="24" viewBox="0 0 24 24" fill="none" xmlns="http://www.w3.org/2000/svg">
<path d="M18.6385 16.35V10.745C18.6375 9.25314 18.1339 7.80513 17.2088 6.63469C16.2838 5.46425 14.9913 4.63965 13.54 4.294V3.8015C13.54 3.39015 13.3766 2.99565 13.0858 2.70478C12.7949 2.41391 12.4004 2.2505 11.989 2.2505C11.5777 2.2505 11.1832 2.41391 10.8923 2.70478C10.6015 2.99565 10.438 3.39015 10.438 3.8015V4.3C8.99181 4.64958 7.70503 5.47508 6.78437 6.64392C5.86371 7.81277 5.36261 9.25712 5.36154 10.745V16.35L3.25854 18.453V19.4245H20.7415V18.453L18.6385 16.35Z" stroke="#6200EE" stroke-width="0.520833" stroke-linecap="round" stroke-linejoin="round"/>
<path d="M9.66309 19.4245C9.65857 19.7328 9.71539 20.0389 9.83024 20.325C9.94509 20.6112 10.1157 20.8716 10.3321 21.0912C10.5485 21.3108 10.8064 21.4852 11.0908 21.6043C11.3753 21.7233 11.6805 21.7846 11.9888 21.7846C12.2972 21.7846 12.6024 21.7233 12.8868 21.6043C13.1713 21.4852 13.4292 21.3108 13.6456 21.0912C13.862 20.8716 14.0326 20.6112 14.1474 20.325C14.2623 20.0389 14.3191 19.7328 14.3146 19.4245" stroke="#6200EE" stroke-width="0.520833" stroke-linecap="round" stroke-linejoin="round"/>
</svg>
