<svg width="21" height="21" viewBox="0 0 21 21" fill="none" xmlns="http://www.w3.org/2000/svg">
<path d="M8.41665 15.7084L3.20831 10.5L4.67706 9.02087L8.41665 12.7605L16.3229 4.85421L17.7916 6.33337M10.5 0.083374C9.13204 0.083374 7.7775 0.352809 6.51369 0.876296C5.24989 1.39978 4.10156 2.16707 3.13428 3.13434C1.18078 5.08785 0.083313 7.73737 0.083313 10.5C0.083313 13.2627 1.18078 15.9122 3.13428 17.8657C4.10156 18.833 5.24989 19.6003 6.51369 20.1238C7.7775 20.6473 9.13204 20.9167 10.5 20.9167C13.2627 20.9167 15.9122 19.8192 17.8657 17.8657C19.8192 15.9122 20.9166 13.2627 20.9166 10.5C20.9166 9.1321 20.6472 7.77756 20.1237 6.51375C19.6002 5.24995 18.833 4.10162 17.8657 3.13434C16.8984 2.16707 15.7501 1.39978 14.4863 0.876296C13.2225 0.352809 11.8679 0.083374 10.5 0.083374V0.083374Z" fill="#6200EE"/>
</svg>
